<mxfile host="app.diagrams.net" agent="Mozilla/5.0 (X11; Linux x86_64) AppleWebKit/537.36 (KHTML, like Gecko) Chrome/130.0.0.0 Safari/537.36" version="24.8.3" pages="2">
  <diagram name="Page-1" id="-6JAYmGhsH5W9wLAXupN">
    <mxGraphModel dx="2407" dy="1384" grid="0" gridSize="10" guides="1" tooltips="1" connect="1" arrows="1" fold="1" page="0" pageScale="1" pageWidth="850" pageHeight="1100" background="#FFFFFF" math="0" shadow="0">
      <root>
        <mxCell id="0" />
        <mxCell id="1" parent="0" />
        <mxCell id="BhxZUhrIALIuKVkP4dP1-63" value="" style="rounded=0;whiteSpace=wrap;html=1;" vertex="1" parent="1">
          <mxGeometry x="-120" y="-245" width="306" height="45" as="geometry" />
        </mxCell>
        <mxCell id="BhxZUhrIALIuKVkP4dP1-50" value="Node" style="text;strokeColor=none;align=center;fillColor=none;html=1;verticalAlign=middle;whiteSpace=wrap;rounded=0;fontSize=20;" vertex="1" parent="1">
          <mxGeometry x="-114" y="-238" width="60" height="30" as="geometry" />
        </mxCell>
        <mxCell id="BhxZUhrIALIuKVkP4dP1-51" value="Null" style="text;strokeColor=none;align=center;fillColor=none;html=1;verticalAlign=middle;whiteSpace=wrap;rounded=0;fontSize=28;" vertex="1" parent="1">
          <mxGeometry x="-35" y="-238" width="60" height="30" as="geometry" />
        </mxCell>
        <mxCell id="BhxZUhrIALIuKVkP4dP1-52" value="Head" style="text;strokeColor=none;align=center;fillColor=none;html=1;verticalAlign=middle;whiteSpace=wrap;rounded=0;fontSize=20;" vertex="1" parent="1">
          <mxGeometry x="44" y="-238" width="60" height="30" as="geometry" />
        </mxCell>
        <mxCell id="BhxZUhrIALIuKVkP4dP1-53" value="Tail" style="text;strokeColor=none;align=center;fillColor=none;html=1;verticalAlign=middle;whiteSpace=wrap;rounded=0;fontSize=20;" vertex="1" parent="1">
          <mxGeometry x="123" y="-238" width="60" height="30" as="geometry" />
        </mxCell>
        <mxCell id="BhxZUhrIALIuKVkP4dP1-54" value="" style="group" vertex="1" connectable="0" parent="1">
          <mxGeometry x="-602" y="-208" width="482" height="356" as="geometry" />
        </mxCell>
        <mxCell id="BhxZUhrIALIuKVkP4dP1-62" value="" style="rounded=0;whiteSpace=wrap;html=1;" vertex="1" parent="BhxZUhrIALIuKVkP4dP1-54">
          <mxGeometry x="-25" y="-24" width="494" height="383" as="geometry" />
        </mxCell>
        <mxCell id="BhxZUhrIALIuKVkP4dP1-26" value="" style="whiteSpace=wrap;html=1;" vertex="1" parent="BhxZUhrIALIuKVkP4dP1-54">
          <mxGeometry y="75" width="384" height="212" as="geometry" />
        </mxCell>
        <mxCell id="BhxZUhrIALIuKVkP4dP1-13" style="edgeStyle=none;curved=1;rounded=0;orthogonalLoop=1;jettySize=auto;html=1;fontSize=12;startSize=8;endSize=8;" edge="1" parent="BhxZUhrIALIuKVkP4dP1-54" source="BhxZUhrIALIuKVkP4dP1-1" target="BhxZUhrIALIuKVkP4dP1-12">
          <mxGeometry relative="1" as="geometry" />
        </mxCell>
        <mxCell id="BhxZUhrIALIuKVkP4dP1-1" value="" style="rounded=0;whiteSpace=wrap;html=1;" vertex="1" parent="BhxZUhrIALIuKVkP4dP1-54">
          <mxGeometry x="26" y="107" width="160" height="80" as="geometry" />
        </mxCell>
        <mxCell id="BhxZUhrIALIuKVkP4dP1-6" value="Prepend Empty List" style="text;strokeColor=none;align=center;fillColor=none;html=1;verticalAlign=middle;whiteSpace=wrap;rounded=0;fontSize=16;" vertex="1" parent="BhxZUhrIALIuKVkP4dP1-54">
          <mxGeometry x="26" width="60" height="30" as="geometry" />
        </mxCell>
        <mxCell id="BhxZUhrIALIuKVkP4dP1-12" value="Null" style="text;strokeColor=none;align=center;fillColor=none;html=1;verticalAlign=middle;whiteSpace=wrap;rounded=0;fontSize=28;" vertex="1" parent="BhxZUhrIALIuKVkP4dP1-54">
          <mxGeometry x="310" y="132" width="60" height="30" as="geometry" />
        </mxCell>
        <mxCell id="BhxZUhrIALIuKVkP4dP1-20" value="" style="edgeStyle=none;curved=1;rounded=0;orthogonalLoop=1;jettySize=auto;html=1;fontSize=12;startSize=8;endSize=8;" edge="1" parent="BhxZUhrIALIuKVkP4dP1-54" source="BhxZUhrIALIuKVkP4dP1-14" target="BhxZUhrIALIuKVkP4dP1-1">
          <mxGeometry relative="1" as="geometry" />
        </mxCell>
        <mxCell id="BhxZUhrIALIuKVkP4dP1-14" value="Head" style="text;strokeColor=none;align=center;fillColor=none;html=1;verticalAlign=middle;whiteSpace=wrap;rounded=0;fontSize=20;" vertex="1" parent="BhxZUhrIALIuKVkP4dP1-54">
          <mxGeometry x="26" y="239" width="60" height="30" as="geometry" />
        </mxCell>
        <mxCell id="BhxZUhrIALIuKVkP4dP1-19" value="" style="edgeStyle=none;curved=1;rounded=0;orthogonalLoop=1;jettySize=auto;html=1;fontSize=12;startSize=8;endSize=8;" edge="1" parent="BhxZUhrIALIuKVkP4dP1-54" source="BhxZUhrIALIuKVkP4dP1-15" target="BhxZUhrIALIuKVkP4dP1-1">
          <mxGeometry relative="1" as="geometry" />
        </mxCell>
        <mxCell id="BhxZUhrIALIuKVkP4dP1-15" value="Tail" style="text;strokeColor=none;align=center;fillColor=none;html=1;verticalAlign=middle;whiteSpace=wrap;rounded=0;fontSize=20;" vertex="1" parent="BhxZUhrIALIuKVkP4dP1-54">
          <mxGeometry x="126" y="239" width="60" height="30" as="geometry" />
        </mxCell>
        <mxCell id="BhxZUhrIALIuKVkP4dP1-16" style="edgeStyle=none;curved=1;rounded=0;orthogonalLoop=1;jettySize=auto;html=1;exitX=0.5;exitY=1;exitDx=0;exitDy=0;fontSize=12;startSize=8;endSize=8;" edge="1" parent="BhxZUhrIALIuKVkP4dP1-54" source="BhxZUhrIALIuKVkP4dP1-15" target="BhxZUhrIALIuKVkP4dP1-15">
          <mxGeometry relative="1" as="geometry" />
        </mxCell>
        <mxCell id="BhxZUhrIALIuKVkP4dP1-24" value="Value" style="text;strokeColor=none;fillColor=none;html=1;align=center;verticalAlign=middle;whiteSpace=wrap;rounded=0;fontSize=16;" vertex="1" parent="BhxZUhrIALIuKVkP4dP1-54">
          <mxGeometry x="76" y="132" width="60" height="30" as="geometry" />
        </mxCell>
        <mxCell id="BhxZUhrIALIuKVkP4dP1-34" value="" style="edgeStyle=none;curved=1;rounded=0;orthogonalLoop=1;jettySize=auto;html=1;fontSize=12;startSize=8;endSize=8;" edge="1" parent="BhxZUhrIALIuKVkP4dP1-54" source="BhxZUhrIALIuKVkP4dP1-28" target="BhxZUhrIALIuKVkP4dP1-1">
          <mxGeometry relative="1" as="geometry" />
        </mxCell>
        <mxCell id="BhxZUhrIALIuKVkP4dP1-28" value="Node" style="text;strokeColor=none;align=center;fillColor=none;html=1;verticalAlign=middle;whiteSpace=wrap;rounded=0;fontSize=20;" vertex="1" parent="BhxZUhrIALIuKVkP4dP1-54">
          <mxGeometry x="236" y="10" width="60" height="30" as="geometry" />
        </mxCell>
        <mxCell id="BhxZUhrIALIuKVkP4dP1-64" value="Prepend&amp;nbsp;" style="text;strokeColor=none;align=center;fillColor=none;html=1;verticalAlign=middle;whiteSpace=wrap;rounded=0;fontSize=20;" vertex="1" parent="1">
          <mxGeometry x="-91" y="-151" width="60" height="30" as="geometry" />
        </mxCell>
        <mxCell id="BhxZUhrIALIuKVkP4dP1-100" value="" style="group" vertex="1" connectable="0" parent="1">
          <mxGeometry x="628" y="-238" width="120" height="60" as="geometry" />
        </mxCell>
        <mxCell id="BhxZUhrIALIuKVkP4dP1-98" value="" style="rounded=0;whiteSpace=wrap;html=1;" vertex="1" parent="BhxZUhrIALIuKVkP4dP1-100">
          <mxGeometry width="120" height="60" as="geometry" />
        </mxCell>
        <mxCell id="BhxZUhrIALIuKVkP4dP1-99" value="Value" style="text;strokeColor=none;align=center;fillColor=none;html=1;verticalAlign=middle;whiteSpace=wrap;rounded=0;fontSize=16;" vertex="1" parent="BhxZUhrIALIuKVkP4dP1-100">
          <mxGeometry x="30" y="15" width="60" height="30" as="geometry" />
        </mxCell>
        <mxCell id="BhxZUhrIALIuKVkP4dP1-101" value="" style="group;labelBackgroundColor=none;" vertex="1" connectable="0" parent="1">
          <mxGeometry x="56" y="-75" width="120" height="60" as="geometry" />
        </mxCell>
        <mxCell id="BhxZUhrIALIuKVkP4dP1-102" value="" style="rounded=0;whiteSpace=wrap;html=1;fillColor=#a0522d;fontColor=#ffffff;strokeColor=#6D1F00;" vertex="1" parent="BhxZUhrIALIuKVkP4dP1-101">
          <mxGeometry width="120" height="60" as="geometry" />
        </mxCell>
        <mxCell id="BhxZUhrIALIuKVkP4dP1-103" value="5" style="text;align=center;html=1;verticalAlign=middle;whiteSpace=wrap;rounded=0;fontSize=16;" vertex="1" parent="BhxZUhrIALIuKVkP4dP1-101">
          <mxGeometry x="30" y="15" width="60" height="30" as="geometry" />
        </mxCell>
        <mxCell id="BhxZUhrIALIuKVkP4dP1-104" value="" style="group;" vertex="1" connectable="0" parent="1">
          <mxGeometry x="220" y="-75" width="120" height="60" as="geometry" />
        </mxCell>
        <mxCell id="BhxZUhrIALIuKVkP4dP1-105" value="" style="rounded=0;whiteSpace=wrap;html=1;fillColor=#a0522d;fontColor=#ffffff;strokeColor=#6D1F00;" vertex="1" parent="BhxZUhrIALIuKVkP4dP1-104">
          <mxGeometry width="120" height="60" as="geometry" />
        </mxCell>
        <mxCell id="BhxZUhrIALIuKVkP4dP1-106" value="6" style="text;strokeColor=none;align=center;fillColor=none;html=1;verticalAlign=middle;whiteSpace=wrap;rounded=0;fontSize=16;" vertex="1" parent="BhxZUhrIALIuKVkP4dP1-104">
          <mxGeometry x="30" y="15" width="60" height="30" as="geometry" />
        </mxCell>
        <mxCell id="BhxZUhrIALIuKVkP4dP1-108" style="edgeStyle=none;curved=1;rounded=0;orthogonalLoop=1;jettySize=auto;html=1;fontSize=12;startSize=8;endSize=8;" edge="1" parent="1" source="BhxZUhrIALIuKVkP4dP1-102" target="BhxZUhrIALIuKVkP4dP1-105">
          <mxGeometry relative="1" as="geometry" />
        </mxCell>
        <mxCell id="BhxZUhrIALIuKVkP4dP1-109" value="" style="group;" vertex="1" connectable="0" parent="1">
          <mxGeometry x="383" y="-75" width="120" height="60" as="geometry" />
        </mxCell>
        <mxCell id="BhxZUhrIALIuKVkP4dP1-110" value="" style="rounded=0;whiteSpace=wrap;html=1;fillColor=#a0522d;fontColor=#ffffff;strokeColor=#6D1F00;" vertex="1" parent="BhxZUhrIALIuKVkP4dP1-109">
          <mxGeometry width="120" height="60" as="geometry" />
        </mxCell>
        <mxCell id="BhxZUhrIALIuKVkP4dP1-111" value="7" style="text;strokeColor=none;align=center;fillColor=none;html=1;verticalAlign=middle;whiteSpace=wrap;rounded=0;fontSize=16;" vertex="1" parent="BhxZUhrIALIuKVkP4dP1-109">
          <mxGeometry x="30" y="15" width="60" height="30" as="geometry" />
        </mxCell>
        <mxCell id="BhxZUhrIALIuKVkP4dP1-113" style="edgeStyle=none;curved=1;rounded=0;orthogonalLoop=1;jettySize=auto;html=1;entryX=0;entryY=0.5;entryDx=0;entryDy=0;fontSize=12;startSize=8;endSize=8;" edge="1" parent="1" source="BhxZUhrIALIuKVkP4dP1-105" target="BhxZUhrIALIuKVkP4dP1-110">
          <mxGeometry relative="1" as="geometry" />
        </mxCell>
        <mxCell id="BhxZUhrIALIuKVkP4dP1-114" value="Null" style="text;strokeColor=none;align=center;fillColor=none;html=1;verticalAlign=middle;whiteSpace=wrap;rounded=0;fontSize=28;" vertex="1" parent="1">
          <mxGeometry x="556" y="-60" width="60" height="30" as="geometry" />
        </mxCell>
        <mxCell id="BhxZUhrIALIuKVkP4dP1-115" value="" style="edgeStyle=none;curved=1;rounded=0;orthogonalLoop=1;jettySize=auto;html=1;fontSize=12;startSize=8;endSize=8;" edge="1" parent="1" source="BhxZUhrIALIuKVkP4dP1-110" target="BhxZUhrIALIuKVkP4dP1-114">
          <mxGeometry relative="1" as="geometry" />
        </mxCell>
        <mxCell id="BhxZUhrIALIuKVkP4dP1-118" style="edgeStyle=none;curved=1;rounded=0;orthogonalLoop=1;jettySize=auto;html=1;entryX=0.5;entryY=1;entryDx=0;entryDy=0;fontSize=12;startSize=8;endSize=8;" edge="1" parent="1" source="BhxZUhrIALIuKVkP4dP1-116" target="BhxZUhrIALIuKVkP4dP1-102">
          <mxGeometry relative="1" as="geometry" />
        </mxCell>
        <mxCell id="BhxZUhrIALIuKVkP4dP1-116" value="Head" style="text;strokeColor=none;align=center;fillColor=none;html=1;verticalAlign=middle;whiteSpace=wrap;rounded=0;fontSize=20;" vertex="1" parent="1">
          <mxGeometry x="86" y="25" width="60" height="30" as="geometry" />
        </mxCell>
        <mxCell id="BhxZUhrIALIuKVkP4dP1-120" style="edgeStyle=none;curved=1;rounded=0;orthogonalLoop=1;jettySize=auto;html=1;entryX=0.5;entryY=1;entryDx=0;entryDy=0;fontSize=12;startSize=8;endSize=8;" edge="1" parent="1" source="BhxZUhrIALIuKVkP4dP1-119" target="BhxZUhrIALIuKVkP4dP1-110">
          <mxGeometry relative="1" as="geometry" />
        </mxCell>
        <mxCell id="BhxZUhrIALIuKVkP4dP1-119" value="Tail" style="text;strokeColor=none;align=center;fillColor=none;html=1;verticalAlign=middle;whiteSpace=wrap;rounded=0;fontSize=20;" vertex="1" parent="1">
          <mxGeometry x="413" y="25" width="60" height="30" as="geometry" />
        </mxCell>
        <mxCell id="BhxZUhrIALIuKVkP4dP1-140" value="" style="group;labelBackgroundColor=none;" vertex="1" connectable="0" parent="1">
          <mxGeometry x="66" y="109" width="120" height="60" as="geometry" />
        </mxCell>
        <mxCell id="BhxZUhrIALIuKVkP4dP1-141" value="" style="rounded=0;whiteSpace=wrap;html=1;fillColor=#a0522d;fontColor=#ffffff;strokeColor=#6D1F00;" vertex="1" parent="BhxZUhrIALIuKVkP4dP1-140">
          <mxGeometry width="120" height="60" as="geometry" />
        </mxCell>
        <mxCell id="BhxZUhrIALIuKVkP4dP1-142" value="5" style="text;align=center;html=1;verticalAlign=middle;whiteSpace=wrap;rounded=0;fontSize=16;" vertex="1" parent="BhxZUhrIALIuKVkP4dP1-140">
          <mxGeometry x="30" y="15" width="60" height="30" as="geometry" />
        </mxCell>
        <mxCell id="BhxZUhrIALIuKVkP4dP1-143" value="" style="group;" vertex="1" connectable="0" parent="1">
          <mxGeometry x="230" y="109" width="120" height="60" as="geometry" />
        </mxCell>
        <mxCell id="BhxZUhrIALIuKVkP4dP1-144" value="" style="rounded=0;whiteSpace=wrap;html=1;fillColor=#a0522d;fontColor=#ffffff;strokeColor=#6D1F00;" vertex="1" parent="BhxZUhrIALIuKVkP4dP1-143">
          <mxGeometry width="120" height="60" as="geometry" />
        </mxCell>
        <mxCell id="BhxZUhrIALIuKVkP4dP1-145" value="6" style="text;strokeColor=none;align=center;fillColor=none;html=1;verticalAlign=middle;whiteSpace=wrap;rounded=0;fontSize=16;" vertex="1" parent="BhxZUhrIALIuKVkP4dP1-143">
          <mxGeometry x="30" y="15" width="60" height="30" as="geometry" />
        </mxCell>
        <mxCell id="BhxZUhrIALIuKVkP4dP1-146" style="edgeStyle=none;curved=1;rounded=0;orthogonalLoop=1;jettySize=auto;html=1;fontSize=12;startSize=8;endSize=8;" edge="1" parent="1" source="BhxZUhrIALIuKVkP4dP1-141" target="BhxZUhrIALIuKVkP4dP1-144">
          <mxGeometry relative="1" as="geometry" />
        </mxCell>
        <mxCell id="BhxZUhrIALIuKVkP4dP1-147" value="" style="group;" vertex="1" connectable="0" parent="1">
          <mxGeometry x="393" y="109" width="120" height="60" as="geometry" />
        </mxCell>
        <mxCell id="BhxZUhrIALIuKVkP4dP1-148" value="" style="rounded=0;whiteSpace=wrap;html=1;fillColor=#a0522d;fontColor=#ffffff;strokeColor=#6D1F00;" vertex="1" parent="BhxZUhrIALIuKVkP4dP1-147">
          <mxGeometry width="120" height="60" as="geometry" />
        </mxCell>
        <mxCell id="BhxZUhrIALIuKVkP4dP1-149" value="7" style="text;strokeColor=none;align=center;fillColor=none;html=1;verticalAlign=middle;whiteSpace=wrap;rounded=0;fontSize=16;" vertex="1" parent="BhxZUhrIALIuKVkP4dP1-147">
          <mxGeometry x="30" y="15" width="60" height="30" as="geometry" />
        </mxCell>
        <mxCell id="BhxZUhrIALIuKVkP4dP1-150" style="edgeStyle=none;curved=1;rounded=0;orthogonalLoop=1;jettySize=auto;html=1;entryX=0;entryY=0.5;entryDx=0;entryDy=0;fontSize=12;startSize=8;endSize=8;" edge="1" parent="1" source="BhxZUhrIALIuKVkP4dP1-144" target="BhxZUhrIALIuKVkP4dP1-148">
          <mxGeometry relative="1" as="geometry" />
        </mxCell>
        <mxCell id="BhxZUhrIALIuKVkP4dP1-151" value="Null" style="text;strokeColor=none;align=center;fillColor=none;html=1;verticalAlign=middle;whiteSpace=wrap;rounded=0;fontSize=28;" vertex="1" parent="1">
          <mxGeometry x="566" y="124" width="60" height="30" as="geometry" />
        </mxCell>
        <mxCell id="BhxZUhrIALIuKVkP4dP1-152" value="" style="edgeStyle=none;curved=1;rounded=0;orthogonalLoop=1;jettySize=auto;html=1;fontSize=12;startSize=8;endSize=8;" edge="1" parent="1" source="BhxZUhrIALIuKVkP4dP1-148" target="BhxZUhrIALIuKVkP4dP1-151">
          <mxGeometry relative="1" as="geometry" />
        </mxCell>
        <mxCell id="BhxZUhrIALIuKVkP4dP1-153" style="edgeStyle=none;curved=1;rounded=0;orthogonalLoop=1;jettySize=auto;html=1;entryX=0.5;entryY=1;entryDx=0;entryDy=0;fontSize=12;startSize=8;endSize=8;" edge="1" parent="1" source="BhxZUhrIALIuKVkP4dP1-154" target="BhxZUhrIALIuKVkP4dP1-141">
          <mxGeometry relative="1" as="geometry" />
        </mxCell>
        <mxCell id="BhxZUhrIALIuKVkP4dP1-154" value="Head" style="text;strokeColor=none;align=center;fillColor=none;html=1;verticalAlign=middle;whiteSpace=wrap;rounded=0;fontSize=20;" vertex="1" parent="1">
          <mxGeometry x="96" y="209" width="60" height="30" as="geometry" />
        </mxCell>
        <mxCell id="BhxZUhrIALIuKVkP4dP1-155" style="edgeStyle=none;curved=1;rounded=0;orthogonalLoop=1;jettySize=auto;html=1;entryX=0.5;entryY=1;entryDx=0;entryDy=0;fontSize=12;startSize=8;endSize=8;" edge="1" parent="1" source="BhxZUhrIALIuKVkP4dP1-156" target="BhxZUhrIALIuKVkP4dP1-148">
          <mxGeometry relative="1" as="geometry" />
        </mxCell>
        <mxCell id="BhxZUhrIALIuKVkP4dP1-156" value="Tail" style="text;strokeColor=none;align=center;fillColor=none;html=1;verticalAlign=middle;whiteSpace=wrap;rounded=0;fontSize=20;" vertex="1" parent="1">
          <mxGeometry x="423" y="209" width="60" height="30" as="geometry" />
        </mxCell>
        <mxCell id="BhxZUhrIALIuKVkP4dP1-158" value="" style="group;" vertex="1" connectable="0" parent="1">
          <mxGeometry x="-108" y="109" width="120" height="60" as="geometry" />
        </mxCell>
        <mxCell id="BhxZUhrIALIuKVkP4dP1-159" value="" style="rounded=0;whiteSpace=wrap;html=1;fillColor=#647687;strokeColor=#314354;fontColor=#ffffff;" vertex="1" parent="BhxZUhrIALIuKVkP4dP1-158">
          <mxGeometry width="120" height="60" as="geometry" />
        </mxCell>
        <mxCell id="BhxZUhrIALIuKVkP4dP1-160" value="3" style="text;strokeColor=none;align=center;fillColor=none;html=1;verticalAlign=middle;whiteSpace=wrap;rounded=0;fontSize=16;" vertex="1" parent="BhxZUhrIALIuKVkP4dP1-158">
          <mxGeometry x="30" y="15" width="60" height="30" as="geometry" />
        </mxCell>
        <mxCell id="BhxZUhrIALIuKVkP4dP1-161" style="edgeStyle=none;curved=1;rounded=0;orthogonalLoop=1;jettySize=auto;html=1;entryX=0;entryY=0.5;entryDx=0;entryDy=0;fontSize=12;startSize=8;endSize=8;" edge="1" parent="1" source="BhxZUhrIALIuKVkP4dP1-159" target="BhxZUhrIALIuKVkP4dP1-141">
          <mxGeometry relative="1" as="geometry" />
        </mxCell>
        <mxCell id="BhxZUhrIALIuKVkP4dP1-162" value="" style="group;labelBackgroundColor=none;" vertex="1" connectable="0" parent="1">
          <mxGeometry x="68" y="261" width="120" height="60" as="geometry" />
        </mxCell>
        <mxCell id="BhxZUhrIALIuKVkP4dP1-163" value="" style="rounded=0;whiteSpace=wrap;html=1;fillColor=#a0522d;fontColor=#ffffff;strokeColor=#6D1F00;" vertex="1" parent="BhxZUhrIALIuKVkP4dP1-162">
          <mxGeometry width="120" height="60" as="geometry" />
        </mxCell>
        <mxCell id="BhxZUhrIALIuKVkP4dP1-164" value="5" style="text;align=center;html=1;verticalAlign=middle;whiteSpace=wrap;rounded=0;fontSize=16;" vertex="1" parent="BhxZUhrIALIuKVkP4dP1-162">
          <mxGeometry x="30" y="15" width="60" height="30" as="geometry" />
        </mxCell>
        <mxCell id="BhxZUhrIALIuKVkP4dP1-165" value="" style="group;" vertex="1" connectable="0" parent="1">
          <mxGeometry x="232" y="261" width="120" height="60" as="geometry" />
        </mxCell>
        <mxCell id="BhxZUhrIALIuKVkP4dP1-166" value="" style="rounded=0;whiteSpace=wrap;html=1;fillColor=#a0522d;fontColor=#ffffff;strokeColor=#6D1F00;" vertex="1" parent="BhxZUhrIALIuKVkP4dP1-165">
          <mxGeometry width="120" height="60" as="geometry" />
        </mxCell>
        <mxCell id="BhxZUhrIALIuKVkP4dP1-167" value="6" style="text;strokeColor=none;align=center;fillColor=none;html=1;verticalAlign=middle;whiteSpace=wrap;rounded=0;fontSize=16;" vertex="1" parent="BhxZUhrIALIuKVkP4dP1-165">
          <mxGeometry x="30" y="15" width="60" height="30" as="geometry" />
        </mxCell>
        <mxCell id="BhxZUhrIALIuKVkP4dP1-168" style="edgeStyle=none;curved=1;rounded=0;orthogonalLoop=1;jettySize=auto;html=1;fontSize=12;startSize=8;endSize=8;" edge="1" parent="1" source="BhxZUhrIALIuKVkP4dP1-163" target="BhxZUhrIALIuKVkP4dP1-166">
          <mxGeometry relative="1" as="geometry" />
        </mxCell>
        <mxCell id="BhxZUhrIALIuKVkP4dP1-169" value="" style="group;" vertex="1" connectable="0" parent="1">
          <mxGeometry x="395" y="261" width="120" height="60" as="geometry" />
        </mxCell>
        <mxCell id="BhxZUhrIALIuKVkP4dP1-170" value="" style="rounded=0;whiteSpace=wrap;html=1;fillColor=#a0522d;fontColor=#ffffff;strokeColor=#6D1F00;" vertex="1" parent="BhxZUhrIALIuKVkP4dP1-169">
          <mxGeometry width="120" height="60" as="geometry" />
        </mxCell>
        <mxCell id="BhxZUhrIALIuKVkP4dP1-171" value="7" style="text;strokeColor=none;align=center;fillColor=none;html=1;verticalAlign=middle;whiteSpace=wrap;rounded=0;fontSize=16;" vertex="1" parent="BhxZUhrIALIuKVkP4dP1-169">
          <mxGeometry x="30" y="15" width="60" height="30" as="geometry" />
        </mxCell>
        <mxCell id="BhxZUhrIALIuKVkP4dP1-172" style="edgeStyle=none;curved=1;rounded=0;orthogonalLoop=1;jettySize=auto;html=1;entryX=0;entryY=0.5;entryDx=0;entryDy=0;fontSize=12;startSize=8;endSize=8;" edge="1" parent="1" source="BhxZUhrIALIuKVkP4dP1-166" target="BhxZUhrIALIuKVkP4dP1-170">
          <mxGeometry relative="1" as="geometry" />
        </mxCell>
        <mxCell id="BhxZUhrIALIuKVkP4dP1-173" value="Null" style="text;strokeColor=none;align=center;fillColor=none;html=1;verticalAlign=middle;whiteSpace=wrap;rounded=0;fontSize=28;" vertex="1" parent="1">
          <mxGeometry x="568" y="276" width="60" height="30" as="geometry" />
        </mxCell>
        <mxCell id="BhxZUhrIALIuKVkP4dP1-174" value="" style="edgeStyle=none;curved=1;rounded=0;orthogonalLoop=1;jettySize=auto;html=1;fontSize=12;startSize=8;endSize=8;" edge="1" parent="1" source="BhxZUhrIALIuKVkP4dP1-170" target="BhxZUhrIALIuKVkP4dP1-173">
          <mxGeometry relative="1" as="geometry" />
        </mxCell>
        <mxCell id="BhxZUhrIALIuKVkP4dP1-187" style="edgeStyle=none;curved=1;rounded=0;orthogonalLoop=1;jettySize=auto;html=1;entryX=0.5;entryY=1;entryDx=0;entryDy=0;fontSize=12;startSize=8;endSize=8;" edge="1" parent="1" source="BhxZUhrIALIuKVkP4dP1-176" target="BhxZUhrIALIuKVkP4dP1-180">
          <mxGeometry relative="1" as="geometry" />
        </mxCell>
        <mxCell id="BhxZUhrIALIuKVkP4dP1-176" value="Head" style="text;strokeColor=none;align=center;fillColor=none;html=1;verticalAlign=middle;whiteSpace=wrap;rounded=0;fontSize=20;" vertex="1" parent="1">
          <mxGeometry x="-76" y="361" width="60" height="30" as="geometry" />
        </mxCell>
        <mxCell id="BhxZUhrIALIuKVkP4dP1-177" style="edgeStyle=none;curved=1;rounded=0;orthogonalLoop=1;jettySize=auto;html=1;entryX=0.5;entryY=1;entryDx=0;entryDy=0;fontSize=12;startSize=8;endSize=8;" edge="1" parent="1" source="BhxZUhrIALIuKVkP4dP1-178" target="BhxZUhrIALIuKVkP4dP1-170">
          <mxGeometry relative="1" as="geometry" />
        </mxCell>
        <mxCell id="BhxZUhrIALIuKVkP4dP1-178" value="Tail" style="text;strokeColor=none;align=center;fillColor=none;html=1;verticalAlign=middle;whiteSpace=wrap;rounded=0;fontSize=20;" vertex="1" parent="1">
          <mxGeometry x="425" y="361" width="60" height="30" as="geometry" />
        </mxCell>
        <mxCell id="BhxZUhrIALIuKVkP4dP1-179" value="" style="group;" vertex="1" connectable="0" parent="1">
          <mxGeometry x="-106" y="261" width="120" height="60" as="geometry" />
        </mxCell>
        <mxCell id="BhxZUhrIALIuKVkP4dP1-180" value="" style="rounded=0;whiteSpace=wrap;html=1;fillColor=#a0522d;strokeColor=#6D1F00;fontColor=#ffffff;" vertex="1" parent="BhxZUhrIALIuKVkP4dP1-179">
          <mxGeometry width="120" height="60" as="geometry" />
        </mxCell>
        <mxCell id="BhxZUhrIALIuKVkP4dP1-181" value="3" style="text;strokeColor=none;align=center;fillColor=none;html=1;verticalAlign=middle;whiteSpace=wrap;rounded=0;fontSize=16;" vertex="1" parent="BhxZUhrIALIuKVkP4dP1-179">
          <mxGeometry x="30" y="15" width="60" height="30" as="geometry" />
        </mxCell>
        <mxCell id="BhxZUhrIALIuKVkP4dP1-182" style="edgeStyle=none;curved=1;rounded=0;orthogonalLoop=1;jettySize=auto;html=1;entryX=0;entryY=0.5;entryDx=0;entryDy=0;fontSize=12;startSize=8;endSize=8;" edge="1" parent="1" source="BhxZUhrIALIuKVkP4dP1-180" target="BhxZUhrIALIuKVkP4dP1-163">
          <mxGeometry relative="1" as="geometry" />
        </mxCell>
        <mxCell id="BhxZUhrIALIuKVkP4dP1-189" style="edgeStyle=none;curved=1;rounded=0;orthogonalLoop=1;jettySize=auto;html=1;entryX=0.5;entryY=1;entryDx=0;entryDy=0;fontSize=12;startSize=8;endSize=8;" edge="1" parent="1" source="BhxZUhrIALIuKVkP4dP1-188" target="BhxZUhrIALIuKVkP4dP1-159">
          <mxGeometry relative="1" as="geometry" />
        </mxCell>
        <mxCell id="BhxZUhrIALIuKVkP4dP1-188" value="New Node" style="text;strokeColor=none;align=center;fillColor=none;html=1;verticalAlign=middle;whiteSpace=wrap;rounded=0;fontSize=16;" vertex="1" parent="1">
          <mxGeometry x="-195" y="200" width="60" height="30" as="geometry" />
        </mxCell>
      </root>
    </mxGraphModel>
  </diagram>
  <diagram id="uxwXFc_pyRfY3riVw_mc" name="Page-2">
    <mxGraphModel dx="2166" dy="1236" grid="0" gridSize="10" guides="1" tooltips="1" connect="1" arrows="1" fold="1" page="0" pageScale="1" pageWidth="850" pageHeight="1100" math="0" shadow="0">
      <root>
        <mxCell id="0" />
        <mxCell id="1" parent="0" />
        <mxCell id="TYLr26LhiQZUqynFhFyM-1" value="" style="rounded=0;whiteSpace=wrap;html=1;" vertex="1" parent="1">
          <mxGeometry x="5" y="-173" width="306" height="45" as="geometry" />
        </mxCell>
        <mxCell id="TYLr26LhiQZUqynFhFyM-2" value="Node" style="text;strokeColor=none;align=center;fillColor=none;html=1;verticalAlign=middle;whiteSpace=wrap;rounded=0;fontSize=20;" vertex="1" parent="1">
          <mxGeometry x="11" y="-166" width="60" height="30" as="geometry" />
        </mxCell>
        <mxCell id="TYLr26LhiQZUqynFhFyM-3" value="Null" style="text;strokeColor=none;align=center;fillColor=none;html=1;verticalAlign=middle;whiteSpace=wrap;rounded=0;fontSize=28;" vertex="1" parent="1">
          <mxGeometry x="90" y="-166" width="60" height="30" as="geometry" />
        </mxCell>
        <mxCell id="TYLr26LhiQZUqynFhFyM-4" value="Head" style="text;strokeColor=none;align=center;fillColor=none;html=1;verticalAlign=middle;whiteSpace=wrap;rounded=0;fontSize=20;" vertex="1" parent="1">
          <mxGeometry x="169" y="-166" width="60" height="30" as="geometry" />
        </mxCell>
        <mxCell id="TYLr26LhiQZUqynFhFyM-5" value="Tail" style="text;strokeColor=none;align=center;fillColor=none;html=1;verticalAlign=middle;whiteSpace=wrap;rounded=0;fontSize=20;" vertex="1" parent="1">
          <mxGeometry x="248" y="-166" width="60" height="30" as="geometry" />
        </mxCell>
        <mxCell id="TYLr26LhiQZUqynFhFyM-6" value="" style="group" vertex="1" connectable="0" parent="1">
          <mxGeometry x="-477" y="-136" width="482" height="356" as="geometry" />
        </mxCell>
        <mxCell id="TYLr26LhiQZUqynFhFyM-7" value="" style="rounded=0;whiteSpace=wrap;html=1;" vertex="1" parent="TYLr26LhiQZUqynFhFyM-6">
          <mxGeometry x="-25" y="-24" width="494" height="383" as="geometry" />
        </mxCell>
        <mxCell id="TYLr26LhiQZUqynFhFyM-8" value="" style="whiteSpace=wrap;html=1;" vertex="1" parent="TYLr26LhiQZUqynFhFyM-6">
          <mxGeometry y="75" width="384" height="212" as="geometry" />
        </mxCell>
        <mxCell id="TYLr26LhiQZUqynFhFyM-9" style="edgeStyle=none;curved=1;rounded=0;orthogonalLoop=1;jettySize=auto;html=1;fontSize=12;startSize=8;endSize=8;" edge="1" parent="TYLr26LhiQZUqynFhFyM-6" source="TYLr26LhiQZUqynFhFyM-10" target="TYLr26LhiQZUqynFhFyM-12">
          <mxGeometry relative="1" as="geometry" />
        </mxCell>
        <mxCell id="TYLr26LhiQZUqynFhFyM-10" value="" style="rounded=0;whiteSpace=wrap;html=1;" vertex="1" parent="TYLr26LhiQZUqynFhFyM-6">
          <mxGeometry x="26" y="107" width="160" height="80" as="geometry" />
        </mxCell>
        <mxCell id="TYLr26LhiQZUqynFhFyM-11" value="Prepend Empty List" style="text;strokeColor=none;align=center;fillColor=none;html=1;verticalAlign=middle;whiteSpace=wrap;rounded=0;fontSize=16;" vertex="1" parent="TYLr26LhiQZUqynFhFyM-6">
          <mxGeometry x="26" width="60" height="30" as="geometry" />
        </mxCell>
        <mxCell id="TYLr26LhiQZUqynFhFyM-12" value="Null" style="text;strokeColor=none;align=center;fillColor=none;html=1;verticalAlign=middle;whiteSpace=wrap;rounded=0;fontSize=28;" vertex="1" parent="TYLr26LhiQZUqynFhFyM-6">
          <mxGeometry x="310" y="132" width="60" height="30" as="geometry" />
        </mxCell>
        <mxCell id="TYLr26LhiQZUqynFhFyM-13" value="" style="edgeStyle=none;curved=1;rounded=0;orthogonalLoop=1;jettySize=auto;html=1;fontSize=12;startSize=8;endSize=8;" edge="1" parent="TYLr26LhiQZUqynFhFyM-6" source="TYLr26LhiQZUqynFhFyM-14" target="TYLr26LhiQZUqynFhFyM-10">
          <mxGeometry relative="1" as="geometry" />
        </mxCell>
        <mxCell id="TYLr26LhiQZUqynFhFyM-14" value="Head" style="text;strokeColor=none;align=center;fillColor=none;html=1;verticalAlign=middle;whiteSpace=wrap;rounded=0;fontSize=20;" vertex="1" parent="TYLr26LhiQZUqynFhFyM-6">
          <mxGeometry x="26" y="239" width="60" height="30" as="geometry" />
        </mxCell>
        <mxCell id="TYLr26LhiQZUqynFhFyM-15" value="" style="edgeStyle=none;curved=1;rounded=0;orthogonalLoop=1;jettySize=auto;html=1;fontSize=12;startSize=8;endSize=8;" edge="1" parent="TYLr26LhiQZUqynFhFyM-6" source="TYLr26LhiQZUqynFhFyM-16" target="TYLr26LhiQZUqynFhFyM-10">
          <mxGeometry relative="1" as="geometry" />
        </mxCell>
        <mxCell id="TYLr26LhiQZUqynFhFyM-16" value="Tail" style="text;strokeColor=none;align=center;fillColor=none;html=1;verticalAlign=middle;whiteSpace=wrap;rounded=0;fontSize=20;" vertex="1" parent="TYLr26LhiQZUqynFhFyM-6">
          <mxGeometry x="126" y="239" width="60" height="30" as="geometry" />
        </mxCell>
        <mxCell id="TYLr26LhiQZUqynFhFyM-17" style="edgeStyle=none;curved=1;rounded=0;orthogonalLoop=1;jettySize=auto;html=1;exitX=0.5;exitY=1;exitDx=0;exitDy=0;fontSize=12;startSize=8;endSize=8;" edge="1" parent="TYLr26LhiQZUqynFhFyM-6" source="TYLr26LhiQZUqynFhFyM-16" target="TYLr26LhiQZUqynFhFyM-16">
          <mxGeometry relative="1" as="geometry" />
        </mxCell>
        <mxCell id="TYLr26LhiQZUqynFhFyM-18" value="Value" style="text;strokeColor=none;fillColor=none;html=1;align=center;verticalAlign=middle;whiteSpace=wrap;rounded=0;fontSize=16;" vertex="1" parent="TYLr26LhiQZUqynFhFyM-6">
          <mxGeometry x="76" y="132" width="60" height="30" as="geometry" />
        </mxCell>
        <mxCell id="TYLr26LhiQZUqynFhFyM-19" value="" style="edgeStyle=none;curved=1;rounded=0;orthogonalLoop=1;jettySize=auto;html=1;fontSize=12;startSize=8;endSize=8;" edge="1" parent="TYLr26LhiQZUqynFhFyM-6" source="TYLr26LhiQZUqynFhFyM-20" target="TYLr26LhiQZUqynFhFyM-10">
          <mxGeometry relative="1" as="geometry" />
        </mxCell>
        <mxCell id="TYLr26LhiQZUqynFhFyM-20" value="Node" style="text;strokeColor=none;align=center;fillColor=none;html=1;verticalAlign=middle;whiteSpace=wrap;rounded=0;fontSize=20;" vertex="1" parent="TYLr26LhiQZUqynFhFyM-6">
          <mxGeometry x="236" y="10" width="60" height="30" as="geometry" />
        </mxCell>
        <mxCell id="TYLr26LhiQZUqynFhFyM-21" value="Prepend&amp;nbsp;" style="text;strokeColor=none;align=center;fillColor=none;html=1;verticalAlign=middle;whiteSpace=wrap;rounded=0;fontSize=20;" vertex="1" parent="1">
          <mxGeometry x="34" y="-79" width="60" height="30" as="geometry" />
        </mxCell>
        <mxCell id="TYLr26LhiQZUqynFhFyM-22" value="" style="group" vertex="1" connectable="0" parent="1">
          <mxGeometry x="753" y="-166" width="120" height="60" as="geometry" />
        </mxCell>
        <mxCell id="TYLr26LhiQZUqynFhFyM-23" value="" style="rounded=0;whiteSpace=wrap;html=1;" vertex="1" parent="TYLr26LhiQZUqynFhFyM-22">
          <mxGeometry width="120" height="60" as="geometry" />
        </mxCell>
        <mxCell id="TYLr26LhiQZUqynFhFyM-24" value="Value" style="text;strokeColor=none;align=center;fillColor=none;html=1;verticalAlign=middle;whiteSpace=wrap;rounded=0;fontSize=16;" vertex="1" parent="TYLr26LhiQZUqynFhFyM-22">
          <mxGeometry x="30" y="15" width="60" height="30" as="geometry" />
        </mxCell>
        <mxCell id="TYLr26LhiQZUqynFhFyM-25" value="" style="group;labelBackgroundColor=none;" vertex="1" connectable="0" parent="1">
          <mxGeometry x="181" y="-3" width="120" height="60" as="geometry" />
        </mxCell>
        <mxCell id="TYLr26LhiQZUqynFhFyM-26" value="" style="rounded=0;whiteSpace=wrap;html=1;fillColor=#a0522d;fontColor=#ffffff;strokeColor=#6D1F00;" vertex="1" parent="TYLr26LhiQZUqynFhFyM-25">
          <mxGeometry width="120" height="60" as="geometry" />
        </mxCell>
        <mxCell id="TYLr26LhiQZUqynFhFyM-27" value="5" style="text;align=center;html=1;verticalAlign=middle;whiteSpace=wrap;rounded=0;fontSize=16;" vertex="1" parent="TYLr26LhiQZUqynFhFyM-25">
          <mxGeometry x="30" y="15" width="60" height="30" as="geometry" />
        </mxCell>
        <mxCell id="TYLr26LhiQZUqynFhFyM-28" value="" style="group;" vertex="1" connectable="0" parent="1">
          <mxGeometry x="345" y="-3" width="120" height="60" as="geometry" />
        </mxCell>
        <mxCell id="TYLr26LhiQZUqynFhFyM-29" value="" style="rounded=0;whiteSpace=wrap;html=1;fillColor=#a0522d;fontColor=#ffffff;strokeColor=#6D1F00;" vertex="1" parent="TYLr26LhiQZUqynFhFyM-28">
          <mxGeometry width="120" height="60" as="geometry" />
        </mxCell>
        <mxCell id="TYLr26LhiQZUqynFhFyM-30" value="6" style="text;strokeColor=none;align=center;fillColor=none;html=1;verticalAlign=middle;whiteSpace=wrap;rounded=0;fontSize=16;" vertex="1" parent="TYLr26LhiQZUqynFhFyM-28">
          <mxGeometry x="30" y="15" width="60" height="30" as="geometry" />
        </mxCell>
        <mxCell id="TYLr26LhiQZUqynFhFyM-31" style="edgeStyle=none;curved=1;rounded=0;orthogonalLoop=1;jettySize=auto;html=1;fontSize=12;startSize=8;endSize=8;" edge="1" parent="1" source="TYLr26LhiQZUqynFhFyM-26" target="TYLr26LhiQZUqynFhFyM-29">
          <mxGeometry relative="1" as="geometry" />
        </mxCell>
        <mxCell id="TYLr26LhiQZUqynFhFyM-32" value="" style="group;" vertex="1" connectable="0" parent="1">
          <mxGeometry x="508" y="-3" width="120" height="60" as="geometry" />
        </mxCell>
        <mxCell id="TYLr26LhiQZUqynFhFyM-33" value="" style="rounded=0;whiteSpace=wrap;html=1;fillColor=#a0522d;fontColor=#ffffff;strokeColor=#6D1F00;" vertex="1" parent="TYLr26LhiQZUqynFhFyM-32">
          <mxGeometry width="120" height="60" as="geometry" />
        </mxCell>
        <mxCell id="TYLr26LhiQZUqynFhFyM-34" value="7" style="text;strokeColor=none;align=center;fillColor=none;html=1;verticalAlign=middle;whiteSpace=wrap;rounded=0;fontSize=16;" vertex="1" parent="TYLr26LhiQZUqynFhFyM-32">
          <mxGeometry x="30" y="15" width="60" height="30" as="geometry" />
        </mxCell>
        <mxCell id="TYLr26LhiQZUqynFhFyM-35" style="edgeStyle=none;curved=1;rounded=0;orthogonalLoop=1;jettySize=auto;html=1;entryX=0;entryY=0.5;entryDx=0;entryDy=0;fontSize=12;startSize=8;endSize=8;" edge="1" parent="1" source="TYLr26LhiQZUqynFhFyM-29" target="TYLr26LhiQZUqynFhFyM-33">
          <mxGeometry relative="1" as="geometry" />
        </mxCell>
        <mxCell id="TYLr26LhiQZUqynFhFyM-36" value="Null" style="text;strokeColor=none;align=center;fillColor=none;html=1;verticalAlign=middle;whiteSpace=wrap;rounded=0;fontSize=28;" vertex="1" parent="1">
          <mxGeometry x="681" y="12" width="60" height="30" as="geometry" />
        </mxCell>
        <mxCell id="TYLr26LhiQZUqynFhFyM-37" value="" style="edgeStyle=none;curved=1;rounded=0;orthogonalLoop=1;jettySize=auto;html=1;fontSize=12;startSize=8;endSize=8;" edge="1" parent="1" source="TYLr26LhiQZUqynFhFyM-33" target="TYLr26LhiQZUqynFhFyM-36">
          <mxGeometry relative="1" as="geometry" />
        </mxCell>
        <mxCell id="TYLr26LhiQZUqynFhFyM-38" style="edgeStyle=none;curved=1;rounded=0;orthogonalLoop=1;jettySize=auto;html=1;entryX=0.5;entryY=1;entryDx=0;entryDy=0;fontSize=12;startSize=8;endSize=8;" edge="1" parent="1" source="TYLr26LhiQZUqynFhFyM-39" target="TYLr26LhiQZUqynFhFyM-26">
          <mxGeometry relative="1" as="geometry" />
        </mxCell>
        <mxCell id="TYLr26LhiQZUqynFhFyM-39" value="Head" style="text;strokeColor=none;align=center;fillColor=none;html=1;verticalAlign=middle;whiteSpace=wrap;rounded=0;fontSize=20;" vertex="1" parent="1">
          <mxGeometry x="211" y="97" width="60" height="30" as="geometry" />
        </mxCell>
        <mxCell id="TYLr26LhiQZUqynFhFyM-40" style="edgeStyle=none;curved=1;rounded=0;orthogonalLoop=1;jettySize=auto;html=1;entryX=0.5;entryY=1;entryDx=0;entryDy=0;fontSize=12;startSize=8;endSize=8;" edge="1" parent="1" source="TYLr26LhiQZUqynFhFyM-41" target="TYLr26LhiQZUqynFhFyM-33">
          <mxGeometry relative="1" as="geometry" />
        </mxCell>
        <mxCell id="TYLr26LhiQZUqynFhFyM-41" value="Tail" style="text;strokeColor=none;align=center;fillColor=none;html=1;verticalAlign=middle;whiteSpace=wrap;rounded=0;fontSize=20;" vertex="1" parent="1">
          <mxGeometry x="538" y="97" width="60" height="30" as="geometry" />
        </mxCell>
        <mxCell id="TYLr26LhiQZUqynFhFyM-42" value="" style="group;labelBackgroundColor=none;" vertex="1" connectable="0" parent="1">
          <mxGeometry x="191" y="181" width="120" height="60" as="geometry" />
        </mxCell>
        <mxCell id="TYLr26LhiQZUqynFhFyM-43" value="" style="rounded=0;whiteSpace=wrap;html=1;fillColor=#a0522d;fontColor=#ffffff;strokeColor=#6D1F00;" vertex="1" parent="TYLr26LhiQZUqynFhFyM-42">
          <mxGeometry width="120" height="60" as="geometry" />
        </mxCell>
        <mxCell id="TYLr26LhiQZUqynFhFyM-44" value="5" style="text;align=center;html=1;verticalAlign=middle;whiteSpace=wrap;rounded=0;fontSize=16;" vertex="1" parent="TYLr26LhiQZUqynFhFyM-42">
          <mxGeometry x="30" y="15" width="60" height="30" as="geometry" />
        </mxCell>
        <mxCell id="TYLr26LhiQZUqynFhFyM-45" value="" style="group;" vertex="1" connectable="0" parent="1">
          <mxGeometry x="355" y="181" width="120" height="60" as="geometry" />
        </mxCell>
        <mxCell id="TYLr26LhiQZUqynFhFyM-46" value="" style="rounded=0;whiteSpace=wrap;html=1;fillColor=#a0522d;fontColor=#ffffff;strokeColor=#6D1F00;" vertex="1" parent="TYLr26LhiQZUqynFhFyM-45">
          <mxGeometry width="120" height="60" as="geometry" />
        </mxCell>
        <mxCell id="TYLr26LhiQZUqynFhFyM-47" value="6" style="text;strokeColor=none;align=center;fillColor=none;html=1;verticalAlign=middle;whiteSpace=wrap;rounded=0;fontSize=16;" vertex="1" parent="TYLr26LhiQZUqynFhFyM-45">
          <mxGeometry x="30" y="15" width="60" height="30" as="geometry" />
        </mxCell>
        <mxCell id="TYLr26LhiQZUqynFhFyM-48" style="edgeStyle=none;curved=1;rounded=0;orthogonalLoop=1;jettySize=auto;html=1;fontSize=12;startSize=8;endSize=8;" edge="1" parent="1" source="TYLr26LhiQZUqynFhFyM-43" target="TYLr26LhiQZUqynFhFyM-46">
          <mxGeometry relative="1" as="geometry" />
        </mxCell>
        <mxCell id="TYLr26LhiQZUqynFhFyM-49" value="" style="group;" vertex="1" connectable="0" parent="1">
          <mxGeometry x="518" y="181" width="120" height="60" as="geometry" />
        </mxCell>
        <mxCell id="TYLr26LhiQZUqynFhFyM-50" value="" style="rounded=0;whiteSpace=wrap;html=1;fillColor=#a0522d;fontColor=#ffffff;strokeColor=#6D1F00;" vertex="1" parent="TYLr26LhiQZUqynFhFyM-49">
          <mxGeometry width="120" height="60" as="geometry" />
        </mxCell>
        <mxCell id="TYLr26LhiQZUqynFhFyM-51" value="7" style="text;strokeColor=none;align=center;fillColor=none;html=1;verticalAlign=middle;whiteSpace=wrap;rounded=0;fontSize=16;" vertex="1" parent="TYLr26LhiQZUqynFhFyM-49">
          <mxGeometry x="30" y="15" width="60" height="30" as="geometry" />
        </mxCell>
        <mxCell id="TYLr26LhiQZUqynFhFyM-52" style="edgeStyle=none;curved=1;rounded=0;orthogonalLoop=1;jettySize=auto;html=1;entryX=0;entryY=0.5;entryDx=0;entryDy=0;fontSize=12;startSize=8;endSize=8;" edge="1" parent="1" source="TYLr26LhiQZUqynFhFyM-46" target="TYLr26LhiQZUqynFhFyM-50">
          <mxGeometry relative="1" as="geometry" />
        </mxCell>
        <mxCell id="TYLr26LhiQZUqynFhFyM-53" value="Null" style="text;strokeColor=none;align=center;fillColor=none;html=1;verticalAlign=middle;whiteSpace=wrap;rounded=0;fontSize=28;" vertex="1" parent="1">
          <mxGeometry x="691" y="196" width="60" height="30" as="geometry" />
        </mxCell>
        <mxCell id="TYLr26LhiQZUqynFhFyM-54" value="" style="edgeStyle=none;curved=1;rounded=0;orthogonalLoop=1;jettySize=auto;html=1;fontSize=12;startSize=8;endSize=8;" edge="1" parent="1" source="TYLr26LhiQZUqynFhFyM-50" target="TYLr26LhiQZUqynFhFyM-53">
          <mxGeometry relative="1" as="geometry" />
        </mxCell>
        <mxCell id="TYLr26LhiQZUqynFhFyM-55" style="edgeStyle=none;curved=1;rounded=0;orthogonalLoop=1;jettySize=auto;html=1;entryX=0.5;entryY=1;entryDx=0;entryDy=0;fontSize=12;startSize=8;endSize=8;" edge="1" parent="1" source="TYLr26LhiQZUqynFhFyM-56" target="TYLr26LhiQZUqynFhFyM-43">
          <mxGeometry relative="1" as="geometry" />
        </mxCell>
        <mxCell id="TYLr26LhiQZUqynFhFyM-56" value="Head" style="text;strokeColor=none;align=center;fillColor=none;html=1;verticalAlign=middle;whiteSpace=wrap;rounded=0;fontSize=20;" vertex="1" parent="1">
          <mxGeometry x="221" y="281" width="60" height="30" as="geometry" />
        </mxCell>
        <mxCell id="TYLr26LhiQZUqynFhFyM-57" style="edgeStyle=none;curved=1;rounded=0;orthogonalLoop=1;jettySize=auto;html=1;entryX=0.5;entryY=1;entryDx=0;entryDy=0;fontSize=12;startSize=8;endSize=8;" edge="1" parent="1" source="TYLr26LhiQZUqynFhFyM-58" target="TYLr26LhiQZUqynFhFyM-50">
          <mxGeometry relative="1" as="geometry" />
        </mxCell>
        <mxCell id="TYLr26LhiQZUqynFhFyM-58" value="Tail" style="text;strokeColor=none;align=center;fillColor=none;html=1;verticalAlign=middle;whiteSpace=wrap;rounded=0;fontSize=20;" vertex="1" parent="1">
          <mxGeometry x="548" y="281" width="60" height="30" as="geometry" />
        </mxCell>
        <mxCell id="TYLr26LhiQZUqynFhFyM-59" value="" style="group;" vertex="1" connectable="0" parent="1">
          <mxGeometry x="17" y="181" width="120" height="60" as="geometry" />
        </mxCell>
        <mxCell id="TYLr26LhiQZUqynFhFyM-60" value="" style="rounded=0;whiteSpace=wrap;html=1;fillColor=#647687;strokeColor=#314354;fontColor=#ffffff;" vertex="1" parent="TYLr26LhiQZUqynFhFyM-59">
          <mxGeometry width="120" height="60" as="geometry" />
        </mxCell>
        <mxCell id="TYLr26LhiQZUqynFhFyM-61" value="3" style="text;strokeColor=none;align=center;fillColor=none;html=1;verticalAlign=middle;whiteSpace=wrap;rounded=0;fontSize=16;" vertex="1" parent="TYLr26LhiQZUqynFhFyM-59">
          <mxGeometry x="30" y="15" width="60" height="30" as="geometry" />
        </mxCell>
        <mxCell id="TYLr26LhiQZUqynFhFyM-62" style="edgeStyle=none;curved=1;rounded=0;orthogonalLoop=1;jettySize=auto;html=1;entryX=0;entryY=0.5;entryDx=0;entryDy=0;fontSize=12;startSize=8;endSize=8;" edge="1" parent="1" source="TYLr26LhiQZUqynFhFyM-60" target="TYLr26LhiQZUqynFhFyM-43">
          <mxGeometry relative="1" as="geometry" />
        </mxCell>
        <mxCell id="TYLr26LhiQZUqynFhFyM-63" value="" style="group;labelBackgroundColor=none;" vertex="1" connectable="0" parent="1">
          <mxGeometry x="193" y="333" width="120" height="60" as="geometry" />
        </mxCell>
        <mxCell id="TYLr26LhiQZUqynFhFyM-64" value="" style="rounded=0;whiteSpace=wrap;html=1;fillColor=#a0522d;fontColor=#ffffff;strokeColor=#6D1F00;" vertex="1" parent="TYLr26LhiQZUqynFhFyM-63">
          <mxGeometry width="120" height="60" as="geometry" />
        </mxCell>
        <mxCell id="TYLr26LhiQZUqynFhFyM-65" value="5" style="text;align=center;html=1;verticalAlign=middle;whiteSpace=wrap;rounded=0;fontSize=16;" vertex="1" parent="TYLr26LhiQZUqynFhFyM-63">
          <mxGeometry x="30" y="15" width="60" height="30" as="geometry" />
        </mxCell>
        <mxCell id="TYLr26LhiQZUqynFhFyM-66" value="" style="group;" vertex="1" connectable="0" parent="1">
          <mxGeometry x="357" y="333" width="120" height="60" as="geometry" />
        </mxCell>
        <mxCell id="TYLr26LhiQZUqynFhFyM-67" value="" style="rounded=0;whiteSpace=wrap;html=1;fillColor=#a0522d;fontColor=#ffffff;strokeColor=#6D1F00;" vertex="1" parent="TYLr26LhiQZUqynFhFyM-66">
          <mxGeometry width="120" height="60" as="geometry" />
        </mxCell>
        <mxCell id="TYLr26LhiQZUqynFhFyM-68" value="6" style="text;strokeColor=none;align=center;fillColor=none;html=1;verticalAlign=middle;whiteSpace=wrap;rounded=0;fontSize=16;" vertex="1" parent="TYLr26LhiQZUqynFhFyM-66">
          <mxGeometry x="30" y="15" width="60" height="30" as="geometry" />
        </mxCell>
        <mxCell id="TYLr26LhiQZUqynFhFyM-69" style="edgeStyle=none;curved=1;rounded=0;orthogonalLoop=1;jettySize=auto;html=1;fontSize=12;startSize=8;endSize=8;" edge="1" parent="1" source="TYLr26LhiQZUqynFhFyM-64" target="TYLr26LhiQZUqynFhFyM-67">
          <mxGeometry relative="1" as="geometry" />
        </mxCell>
        <mxCell id="TYLr26LhiQZUqynFhFyM-70" value="" style="group;" vertex="1" connectable="0" parent="1">
          <mxGeometry x="520" y="333" width="120" height="60" as="geometry" />
        </mxCell>
        <mxCell id="TYLr26LhiQZUqynFhFyM-71" value="" style="rounded=0;whiteSpace=wrap;html=1;fillColor=#a0522d;fontColor=#ffffff;strokeColor=#6D1F00;" vertex="1" parent="TYLr26LhiQZUqynFhFyM-70">
          <mxGeometry width="120" height="60" as="geometry" />
        </mxCell>
        <mxCell id="TYLr26LhiQZUqynFhFyM-72" value="7" style="text;strokeColor=none;align=center;fillColor=none;html=1;verticalAlign=middle;whiteSpace=wrap;rounded=0;fontSize=16;" vertex="1" parent="TYLr26LhiQZUqynFhFyM-70">
          <mxGeometry x="30" y="15" width="60" height="30" as="geometry" />
        </mxCell>
        <mxCell id="TYLr26LhiQZUqynFhFyM-73" style="edgeStyle=none;curved=1;rounded=0;orthogonalLoop=1;jettySize=auto;html=1;entryX=0;entryY=0.5;entryDx=0;entryDy=0;fontSize=12;startSize=8;endSize=8;" edge="1" parent="1" source="TYLr26LhiQZUqynFhFyM-67" target="TYLr26LhiQZUqynFhFyM-71">
          <mxGeometry relative="1" as="geometry" />
        </mxCell>
        <mxCell id="TYLr26LhiQZUqynFhFyM-74" value="Null" style="text;strokeColor=none;align=center;fillColor=none;html=1;verticalAlign=middle;whiteSpace=wrap;rounded=0;fontSize=28;" vertex="1" parent="1">
          <mxGeometry x="693" y="348" width="60" height="30" as="geometry" />
        </mxCell>
        <mxCell id="TYLr26LhiQZUqynFhFyM-75" value="" style="edgeStyle=none;curved=1;rounded=0;orthogonalLoop=1;jettySize=auto;html=1;fontSize=12;startSize=8;endSize=8;" edge="1" parent="1" source="TYLr26LhiQZUqynFhFyM-71" target="TYLr26LhiQZUqynFhFyM-74">
          <mxGeometry relative="1" as="geometry" />
        </mxCell>
        <mxCell id="TYLr26LhiQZUqynFhFyM-76" style="edgeStyle=none;curved=1;rounded=0;orthogonalLoop=1;jettySize=auto;html=1;entryX=0.5;entryY=1;entryDx=0;entryDy=0;fontSize=12;startSize=8;endSize=8;" edge="1" parent="1" source="TYLr26LhiQZUqynFhFyM-77" target="TYLr26LhiQZUqynFhFyM-81">
          <mxGeometry relative="1" as="geometry" />
        </mxCell>
        <mxCell id="TYLr26LhiQZUqynFhFyM-77" value="Head" style="text;strokeColor=none;align=center;fillColor=none;html=1;verticalAlign=middle;whiteSpace=wrap;rounded=0;fontSize=20;" vertex="1" parent="1">
          <mxGeometry x="49" y="433" width="60" height="30" as="geometry" />
        </mxCell>
        <mxCell id="TYLr26LhiQZUqynFhFyM-78" style="edgeStyle=none;curved=1;rounded=0;orthogonalLoop=1;jettySize=auto;html=1;entryX=0.5;entryY=1;entryDx=0;entryDy=0;fontSize=12;startSize=8;endSize=8;" edge="1" parent="1" source="TYLr26LhiQZUqynFhFyM-79" target="TYLr26LhiQZUqynFhFyM-71">
          <mxGeometry relative="1" as="geometry" />
        </mxCell>
        <mxCell id="TYLr26LhiQZUqynFhFyM-79" value="Tail" style="text;strokeColor=none;align=center;fillColor=none;html=1;verticalAlign=middle;whiteSpace=wrap;rounded=0;fontSize=20;" vertex="1" parent="1">
          <mxGeometry x="550" y="433" width="60" height="30" as="geometry" />
        </mxCell>
        <mxCell id="TYLr26LhiQZUqynFhFyM-80" value="" style="group;" vertex="1" connectable="0" parent="1">
          <mxGeometry x="19" y="333" width="120" height="60" as="geometry" />
        </mxCell>
        <mxCell id="TYLr26LhiQZUqynFhFyM-81" value="" style="rounded=0;whiteSpace=wrap;html=1;fillColor=#a0522d;strokeColor=#6D1F00;fontColor=#ffffff;" vertex="1" parent="TYLr26LhiQZUqynFhFyM-80">
          <mxGeometry width="120" height="60" as="geometry" />
        </mxCell>
        <mxCell id="TYLr26LhiQZUqynFhFyM-82" value="3" style="text;strokeColor=none;align=center;fillColor=none;html=1;verticalAlign=middle;whiteSpace=wrap;rounded=0;fontSize=16;" vertex="1" parent="TYLr26LhiQZUqynFhFyM-80">
          <mxGeometry x="30" y="15" width="60" height="30" as="geometry" />
        </mxCell>
        <mxCell id="TYLr26LhiQZUqynFhFyM-83" style="edgeStyle=none;curved=1;rounded=0;orthogonalLoop=1;jettySize=auto;html=1;entryX=0;entryY=0.5;entryDx=0;entryDy=0;fontSize=12;startSize=8;endSize=8;" edge="1" parent="1" source="TYLr26LhiQZUqynFhFyM-81" target="TYLr26LhiQZUqynFhFyM-64">
          <mxGeometry relative="1" as="geometry" />
        </mxCell>
        <mxCell id="TYLr26LhiQZUqynFhFyM-84" style="edgeStyle=none;curved=1;rounded=0;orthogonalLoop=1;jettySize=auto;html=1;entryX=0.5;entryY=1;entryDx=0;entryDy=0;fontSize=12;startSize=8;endSize=8;" edge="1" parent="1" source="TYLr26LhiQZUqynFhFyM-85" target="TYLr26LhiQZUqynFhFyM-60">
          <mxGeometry relative="1" as="geometry" />
        </mxCell>
        <mxCell id="TYLr26LhiQZUqynFhFyM-85" value="Text" style="text;strokeColor=none;align=center;fillColor=none;html=1;verticalAlign=middle;whiteSpace=wrap;rounded=0;fontSize=16;" vertex="1" parent="1">
          <mxGeometry x="-70" y="272" width="60" height="30" as="geometry" />
        </mxCell>
      </root>
    </mxGraphModel>
  </diagram>
</mxfile>
